<?xml version="1.0" encoding="UTF-8" standalone="no"?>
<!DOCTYPE svg PUBLIC "-//W3C//DTD SVG 1.1//EN" "http://www.w3.org/Graphics/SVG/1.1/DTD/svg11.dtd">
<svg xmlns="http://www.w3.org/2000/svg" version="1.1" viewBox="0 0 315 340">
<path fill="#ed1f27" d="
  M 265.29 55.70
  C 273.05 62.28 278.75 52.78 282.07 47.39
  C 284.24 43.86 288.88 39.78 292.12 44.74
  C 296.51 51.45 288.56 62.98 283.84 67.53
  C 278.02 73.14 271.58 74.30 264.87 69.60
  Q 253.87 61.90 244.34 52.41
  C 237.29 45.39 231.28 39.56 221.01 37.72
  C 205.06 34.86 188.14 38.85 183.88 56.77
  Q 179.72 74.25 190.24 88.51
  C 200.45 102.35 213.90 109.03 230.51 112.44
  Q 250.41 116.54 270.68 117.83
  A 1.17 0.76 -7.3 0 1 271.52 118.23
  C 272.12 119.13 264.09 121.31 263.27 121.48
  C 235.28 127.41 201.86 127.89 177.41 111.11
  C 169.72 105.84 161.41 99.61 154.27 95.32
  Q 128.97 80.13 99.90 74.52
  C 82.90 71.25 72.97 61.93 74.53 43.02
  Q 75.39 32.73 83.92 25.42
  C 100.52 11.21 121.57 17.11 129.61 36.95
  C 132.21 43.39 130.97 48.95 130.31 55.26
  Q 130.01 58.09 131.80 60.23
  C 135.65 64.80 138.78 62.00 141.60 58.29
  Q 156.52 38.62 176.30 23.80
  C 186.82 15.91 196.98 9.42 210.82 13.43
  C 220.74 16.31 232.33 24.65 239.41 29.60
  C 249.44 36.60 256.25 48.05 265.29 55.70
  Z"
/>
<path fill="#000000" d="
  M 198.82 177.56
  C 205.82 178.24 215.92 178.33 223.27 177.11
  C 240.36 174.29 253.52 167.18 268.54 160.88
  A 1.09 0.93 -39.2 0 1 269.44 160.90
  Q 271.72 162.15 269.51 164.02
  Q 251.18 179.51 227.82 190.31
  C 180.87 212.00 143.55 172.53 116.21 140.54
  C 102.22 124.17 84.50 115.65 63.57 111.74
  C 61.69 111.39 60.63 109.80 63.27 108.95
  C 65.99 108.06 73.82 108.78 77.61 109.52
  C 98.57 113.60 117.35 122.70 131.51 138.47
  Q 135.38 142.78 139.29 147.03
  C 155.53 164.68 174.70 175.19 198.82 177.56
  Z"
/>
<path fill="#000000" d="
  M 44.68 238.94
  C 55.93 248.46 50.71 264.20 36.99 268.22
  C 22.99 272.33 8.82 265.54 7.51 249.99
  A 0.99 0.99 -7.6 0 1 8.32 248.93
  Q 12.43 248.16 16.50 249.31
  A 1.07 0.99 84.8 0 1 17.16 249.91
  C 25.87 271.38 48.63 254.55 35.48 247.68
  C 26.90 243.20 9.52 238.76 9.24 226.67
  C 8.70 203.14 44.87 201.62 48.42 223.63
  Q 48.74 225.58 46.84 225.61
  L 40.10 225.69
  A 0.94 0.79 71.6 0 1 39.35 225.23
  C 36.08 219.78 33.89 216.29 26.69 217.42
  C 19.71 218.51 16.43 226.69 24.25 229.63
  C 30.27 231.89 35.98 234.58 41.26 236.84
  Q 43.13 237.63 44.68 238.94
  Z"
/>
<path fill="#000000" d="
  M 170.30 208.60
  C 199.90 204.19 207.66 238.89 195.85 258.35
  C 188.93 269.75 170.74 272.10 160.33 264.72
  C 141.41 251.32 144.96 212.38 170.30 208.60
  Z
  M 183.06 219.94
  C 174.72 214.33 165.84 217.42 162.01 226.19
  Q 156.32 239.24 162.68 252.57
  C 165.73 258.96 172.82 261.78 179.36 259.48
  C 192.81 254.76 193.59 227.01 183.06 219.94
  Z"
/>
<path fill="#000000" d="
  M 112.53 246.31
  L 112.33 265.51
  A 2.40 2.23 82.4 0 1 110.75 267.74
  Q 106.82 268.95 102.27 267.75
  A 0.66 0.65 7.5 0 1 101.78 267.12
  L 101.76 210.22
  A 1.23 1.22 -0.2 0 1 102.98 209.00
  C 112.84 208.93 129.80 207.13 137.51 214.72
  C 143.73 220.84 144.21 231.06 139.23 238.05
  C 137.74 240.15 135.15 241.86 133.10 243.55
  A 1.07 1.05 56.4 0 0 132.84 244.88
  L 144.83 267.09
  A 0.33 0.32 75.1 0 1 144.56 267.57
  L 134.51 267.71
  A 2.71 2.30 72.9 0 1 132.30 266.30
  L 121.82 247.15
  A 3.19 3.05 -7.0 0 0 119.78 245.63
  Q 116.67 244.90 113.05 245.70
  A 0.66 0.63 -5.8 0 0 112.53 246.31
  Z
  M 129.00 233.21
  Q 132.58 229.12 131.34 225.01
  C 129.09 217.53 119.33 217.86 113.55 218.61
  A 1.20 1.20 86.4 0 0 112.51 219.79
  L 112.50 235.27
  A 0.88 0.87 2.9 0 0 113.29 236.14
  Q 119.54 236.75 124.44 235.82
  Q 127.17 235.30 129.00 233.21
  Z"
/>
<path fill="#000000" d="
  M 222.24 237.25
  A 0.35 0.35 11.1 0 0 221.76 237.57
  Q 221.73 249.33 221.76 261.08
  C 221.77 262.70 222.35 264.94 221.65 267.08
  A 0.75 0.71 -80.3 0 1 220.97 267.59
  L 212.10 267.65
  A 0.64 0.58 89.6 0 1 211.51 267.01
  L 211.52 211.13
  Q 211.52 209.01 213.56 209.02
  L 219.90 209.06
  A 1.43 1.38 90.0 0 1 221.27 210.48
  L 221.30 234.56
  Q 221.31 238.26 223.60 235.35
  L 243.46 210.16
  A 1.47 1.42 -76.3 0 1 244.27 209.65
  Q 249.52 208.53 254.82 209.16
  Q 256.05 209.30 255.29 210.27
  L 235.28 235.56
  A 1.55 1.55 -43.8 0 0 235.24 237.43
  L 257.20 267.32
  Q 257.76 268.09 256.80 268.06
  L 244.85 267.71
  A 1.27 1.23 -16.3 0 1 243.84 267.18
  Q 233.70 252.57 223.37 238.11
  Q 222.94 237.51 222.24 237.25
  Z"
/>
<path fill="#000000" d="
  M 93.55 210.12
  Q 95.28 213.48 94.13 216.06
  Q 93.27 218.02 90.98 218.05
  L 80.87 218.17
  Q 78.92 218.20 78.93 220.26
  L 79.01 266.52
  A 1.35 1.33 -4.2 0 1 77.84 267.85
  Q 73.47 268.42 69.26 267.89
  A 0.88 0.87 -86.3 0 1 68.50 267.02
  L 68.49 219.83
  A 1.78 1.71 89.7 0 0 66.76 218.05
  L 54.90 218.17
  A 1.89 1.79 -5.7 0 1 53.04 216.73
  Q 52.25 212.74 53.55 209.97
  A 0.80 0.80 -76.9 0 1 54.27 209.52
  L 92.81 209.68
  A 0.84 0.82 -13.4 0 1 93.55 210.12
  Z"
/>
<path fill="#000000" d="
  M 275.32 232.72
  L 296.39 232.93
  A 1.63 1.53 0.4 0 1 298.00 234.46
  L 297.97 240.16
  Q 297.96 242.04 296.02 242.01
  L 276.95 241.74
  Q 274.91 241.71 274.72 243.75
  Q 274.07 250.55 274.91 258.50
  A 0.58 0.58 -3.3 0 0 275.49 259.01
  L 299.20 259.03
  A 2.09 2.08 80.9 0 1 301.18 260.47
  Q 302.26 263.76 300.93 267.27
  A 0.76 0.73 10.1 0 1 300.23 267.74
  L 266.20 267.74
  A 1.44 1.43 0.0 0 1 264.76 266.31
  L 264.76 210.48
  A 0.98 0.98 -0.1 0 1 265.74 209.50
  L 299.21 209.51
  A 0.89 0.89 85.0 0 1 300.09 210.25
  Q 300.75 213.89 299.71 217.42
  A 0.70 0.67 7.4 0 1 299.06 217.90
  L 276.93 217.99
  Q 275.00 218.00 274.77 219.89
  Q 274.06 225.73 274.76 232.19
  A 0.59 0.57 87.7 0 0 275.32 232.72
  Z"
/>
<path fill="#000000" d="
  M 120.55 324.94
  Q 109.59 315.01 113.02 300.12
  C 115.34 290.04 124.35 282.97 134.92 284.78
  Q 144.72 286.45 146.81 296.61
  A 1.13 1.12 -12.0 0 1 145.95 297.93
  C 138.66 299.54 140.51 291.67 133.27 290.76
  C 118.77 288.96 117.84 312.72 124.69 319.58
  C 129.49 324.38 144.98 322.82 141.26 313.14
  A 1.81 1.78 -10.4 0 0 139.58 312.00
  L 134.77 312.00
  A 1.32 1.18 -21.0 0 1 133.90 311.67
  Q 132.12 310.01 132.97 307.45
  A 2.19 2.16 9.4 0 1 135.05 305.98
  L 146.47 306.05
  A 1.01 1.01 89.7 0 1 147.48 307.05
  L 147.49 322.25
  Q 147.49 324.57 145.36 325.54
  C 137.50 329.14 127.34 331.09 120.55 324.94
  Z"
/>
<path fill="#000000" d="
  M 162.11 318.60
  C 161.37 307.25 154.42 296.75 148.74 287.22
  A 0.96 0.96 -26.0 0 1 149.22 285.83
  C 152.48 284.54 155.73 284.64 157.67 288.00
  Q 161.65 294.94 164.97 301.92
  Q 165.55 303.13 166.17 301.94
  L 174.31 286.54
  A 1.85 1.76 -75.5 0 1 175.90 285.55
  L 181.93 285.52
  A 0.63 0.62 -76.0 0 1 182.47 286.44
  C 176.20 298.32 166.19 311.76 169.58 326.39
  A 0.92 0.91 -14.4 0 1 168.94 327.47
  Q 165.27 328.52 162.33 327.59
  A 0.76 0.74 -83.8 0 1 161.81 326.93
  C 161.57 324.05 162.26 321.02 162.11 318.60
  Z"
/>
<path fill="#000000" d="
  M 104.98 308.79
  C 100.03 309.31 95.21 308.50 90.30 309.09
  A 1.25 1.19 86.6 0 0 89.26 310.32
  L 89.27 319.45
  Q 89.28 321.48 91.19 321.48
  L 107.23 321.51
  A 1.00 0.96 -17.3 0 1 108.03 321.91
  Q 109.79 324.40 108.50 327.21
  A 0.79 0.79 12.2 0 1 107.78 327.67
  L 82.94 327.70
  A 1.19 1.17 89.8 0 1 81.76 326.51
  L 81.77 287.18
  A 1.66 1.65 90.0 0 1 83.42 285.52
  L 106.85 285.54
  A 0.90 0.83 -13.7 0 1 107.61 285.96
  Q 109.22 288.87 107.15 291.17
  A 1.22 1.09 19.1 0 1 106.29 291.53
  C 101.37 291.51 96.28 291.76 91.43 291.31
  C 88.05 291.00 89.40 297.93 89.31 300.25
  Q 89.22 302.55 91.41 302.57
  L 103.79 302.71
  A 1.98 1.15 -16.2 0 1 104.71 302.94
  Q 107.90 304.92 105.75 308.33
  A 1.06 0.99 12.2 0 1 104.98 308.79
  Z"
/>
<path fill="#000000" d="
  M 213.62 288.96
  Q 221.07 296.88 214.98 307.25
  C 212.65 311.21 202.07 311.80 198.06 311.72
  Q 195.26 311.67 195.25 314.49
  L 195.20 326.43
  A 0.80 0.78 77.8 0 1 194.75 327.15
  Q 191.94 328.41 189.45 327.68
  A 2.15 2.11 -82.1 0 1 187.92 325.62
  L 187.88 286.42
  A 0.89 0.87 89.3 0 1 188.73 285.53
  C 194.96 285.39 209.06 284.12 213.62 288.96
  Z
  M 195.93 305.31
  C 201.65 305.23 211.35 306.12 209.92 297.01
  Q 209.48 294.25 206.98 292.99
  Q 201.68 290.32 196.00 292.13
  A 0.69 0.68 81.4 0 0 195.52 292.79
  L 195.52 304.91
  A 0.40 0.40 -0.7 0 0 195.93 305.31
  Z"
/>
<path fill="#000000" d="
  M 228.02 291.74
  C 224.20 291.44 216.16 292.92 218.56 286.05
  A 0.72 0.72 9.7 0 1 219.24 285.57
  L 247.38 285.53
  A 0.91 0.89 -15.3 0 1 248.15 285.96
  Q 249.65 288.53 248.06 290.88
  A 0.93 0.93 18.8 0 1 247.26 291.28
  L 239.38 290.99
  A 1.71 1.66 1.2 0 0 237.60 292.65
  L 237.70 326.29
  A 1.39 1.26 -89.6 0 1 236.41 327.69
  L 230.29 327.54
  A 0.58 0.53 -89.5 0 1 229.77 326.96
  L 229.54 293.40
  A 1.68 1.64 -88.2 0 0 228.02 291.74
  Z"
/>
</svg>
